<svg xmlns="http://www.w3.org/2000/svg" width="16" height="16" viewBox="0 0 16 16">
    <path d="M15767.4 3270.03a.5.5 0 0 1-.5-.5v-2a.5.5 0 0 1 .5-.5h2a.5.5 0 0 1 .5.5v2a.5.5 0 0 1-.5.5zm-6 0a.5.5 0 0 1-.5-.5v-2a.5.5 0 0 1 .5-.5h2a.5.5 0 0 1 .5.5v2a.5.5 0 0 1-.5.5zm-6 0a.5.5 0 0 1-.5-.5v-2a.5.5 0 0 1 .5-.5h2a.5.5 0 0 1 .5.5v2a.5.5 0 0 1-.5.5zm12-6a.5.5 0 0 1-.5-.5v-2a.5.5 0 0 1 .5-.5h2a.5.5 0 0 1 .5.5v2a.5.5 0 0 1-.5.5zm-6 0a.5.5 0 0 1-.5-.5v-2a.5.5 0 0 1 .5-.5h2a.5.5 0 0 1 .5.5v2a.5.5 0 0 1-.5.5zm-6 0a.5.5 0 0 1-.5-.5v-2a.5.5 0 0 1 .5-.5h2a.5.5 0 0 1 .5.5v2a.5.5 0 0 1-.5.5zm12-6a.5.5 0 0 1-.5-.5v-2a.5.5 0 0 1 .5-.5h2a.5.5 0 0 1 .5.5v2a.5.5 0 0 1-.5.5zm-6 0a.5.5 0 0 1-.5-.5v-2a.5.5 0 0 1 .5-.5h2a.5.5 0 0 1 .5.5v2a.5.5 0 0 1-.5.5zm-6 0a.5.5 0 0 1-.5-.5v-2a.5.5 0 0 1 .5-.5h2a.5.5 0 0 1 .5.5v2a.5.5 0 0 1-.5.5z" transform="translate(-15754.4 -3254.53)"/>
</svg>
