<svg width="1056" height="300" viewBox="0 0 1056 300" fill="none" xmlns="http://www.w3.org/2000/svg">
    <g clip-path="url(#clip0_615:13)">
    <path d="M1018.68 268.42H1018.39C1015.72 268.245 1013.23 267.018 1011.47 265.008C1009.7 262.998 1008.81 260.369 1008.98 257.7C1008.98 257.62 1008.98 257.54 1008.98 257.46C1008.94 256.144 1009.15 254.833 1009.62 253.601C1010.08 252.368 1010.78 251.24 1011.68 250.28C1012.59 249.321 1013.67 248.548 1014.87 248.008C1016.07 247.467 1017.36 247.169 1018.68 247.13C1020.6 247.164 1022.47 247.786 1024.03 248.912C1025.59 250.038 1026.77 251.615 1027.41 253.43H1037.07C1036.3 249.477 1034.14 245.93 1030.98 243.43C1027.49 240.424 1022.99 238.839 1018.39 238.99C1013.54 239.004 1008.88 240.912 1005.41 244.307C1001.94 247.702 999.93 252.317 999.81 257.17C999.712 259.74 1000.16 262.302 1001.11 264.69C1002.07 267.078 1003.52 269.238 1005.36 271.03C1008.87 274.509 1013.62 276.461 1018.56 276.46H1018.98C1023.15 276.461 1027.2 275.063 1030.48 272.491C1033.76 269.918 1036.08 266.319 1037.07 262.27H1027.41C1026.75 264.057 1025.56 265.6 1024 266.698C1022.44 267.796 1020.59 268.396 1018.68 268.42V268.42Z" fill="black"/>
    <path d="M1052.88 243.21C1051.01 238.762 1048.29 234.718 1044.88 231.3C1041.47 227.886 1037.42 225.169 1032.97 223.3C1028.36 221.339 1023.41 220.339 1018.4 220.36C1013.39 220.346 1008.43 221.346 1003.82 223.3C999.371 225.174 995.327 227.89 991.91 231.3C988.5 234.717 985.784 238.761 983.91 243.21C981.944 247.824 980.924 252.785 980.91 257.8C980.925 262.808 981.945 267.763 983.91 272.37C985.784 276.819 988.5 280.863 991.91 284.28C995.33 287.686 999.373 290.402 1003.82 292.28C1008.43 294.25 1013.39 295.27 1018.4 295.28H1018.47C1023.46 295.261 1028.39 294.241 1032.97 292.28C1037.42 290.411 1041.47 287.694 1044.88 284.28C1048.29 280.862 1051.01 276.818 1052.88 272.37C1054.83 267.76 1055.83 262.805 1055.82 257.8C1055.83 252.788 1054.83 247.826 1052.88 243.21V243.21ZM1045.39 269.21C1043.91 272.687 1041.78 275.848 1039.11 278.52C1036.44 281.201 1033.27 283.337 1029.78 284.81C1026.17 286.34 1022.29 287.122 1018.37 287.11C1014.45 287.126 1010.56 286.344 1006.95 284.81C1003.47 283.336 1000.3 281.2 997.63 278.52C994.953 275.851 992.817 272.69 991.34 269.21C989.821 265.598 989.039 261.719 989.04 257.8C989.04 253.875 989.822 249.989 991.34 246.37C992.813 242.885 994.95 239.72 997.63 237.05C1000.3 234.376 1003.47 232.243 1006.95 230.77V230.77C1010.55 229.251 1014.41 228.469 1018.32 228.47H1018.38C1022.3 228.464 1026.18 229.246 1029.79 230.77C1033.28 232.241 1036.44 234.373 1039.12 237.05C1041.79 239.728 1043.92 242.891 1045.4 246.37C1046.92 249.988 1047.71 253.874 1047.7 257.8C1047.7 261.716 1046.92 265.593 1045.39 269.2V269.21Z" fill="black"/>
    <path d="M183.2 23.05C162.89 11.72 134.37 5.46997 98.4301 5.46997H82.29V70.31H107.42C150 70.31 176.17 98.83 176.17 150.39C176.17 203.12 149.61 229.69 107.03 229.69H82.29V294.53H103.51C193.75 294.53 250 245.31 250 150C250 91.01 224.22 46.48 183.2 23.05Z" fill="black"/>
    <path d="M0 294.53H73.88V229.69H73.83V70.31H73.88V5.46997H0V294.53Z" fill="black"/>
    <path d="M402.73 123.05L399.56 121.67L382.51 180.13C397.41 187.55 408.98 196.74 408.98 210.59C408.999 214.237 408.294 217.851 406.907 221.224C405.52 224.596 403.478 227.661 400.9 230.239C398.321 232.818 395.257 234.86 391.884 236.247C388.511 237.634 384.897 238.338 381.25 238.32C362.89 238.32 351.17 222.7 350.78 198.87H277.34V205.13C277.34 267.24 318.75 300.05 381.64 300.05C444.14 300.05 482.42 267.24 482.42 211.38C482.42 173.44 466.4 150.39 402.73 123.05Z" fill="black"/>
    <path d="M350.78 166.8C358.6 169.95 366.93 173.06 374.78 176.5L391.78 118.24C367.48 107.31 355.46 99.4501 355.46 84.3701C355.46 71.4801 367.17 61.7201 380.85 61.7201C395.3 61.7201 403.85 69.1401 407.02 89.8401H480.07C479.68 51.1701 464.83 28.12 433.97 12.11C418.144 3.99334 400.585 -0.162189 382.8 5.82794e-05C329.68 5.82794e-05 282.02 35.9401 282.02 85.1601C282.03 122.66 303.51 147.66 350.78 166.8Z" fill="black"/>
    <path d="M662.89 109.37C662.89 130.47 652.49 143.37 634.61 148.37L670.87 193.94C709.96 182.89 733.6 147.51 733.6 105.03C733.6 64.03 711.72 30.03 680.47 15.96C665.24 9.31996 642.19 5.42004 612.11 5.42004H595.28V70.26H616.41C644.14 70.31 662.89 84.37 662.89 109.37Z" fill="black"/>
    <path d="M701.36 245.84L686.42 227.06L661.72 196.06H661.78L625.29 150.21C622.083 150.582 618.858 150.765 615.63 150.76H588.28V150.56H586.86V5.44995H512.98V294.53H586.86V201.13H589.06L655.86 294.49H740.24L701.38 245.78L701.36 245.84Z" fill="black"/>
    <path d="M942.72 5.46997L890.07 185.84L883.61 208.2H883.54L858.34 294.53H921.5L1018.37 5.46997H942.72Z" fill="black"/>
    <path d="M824.62 5.46997H748.84L845.33 294.53H849.57L878.83 194.29L824.62 5.46997Z" fill="black"/>
    </g>
    <defs>
    <clipPath id="clip0_615:13">
    <rect width="1055.83" height="300" fill="white"/>
    </clipPath>
    </defs>
</svg>
